<?xml version="1.0" standalone="no"?>
<!DOCTYPE svg PUBLIC "-//W3C//DTD SVG 20010904//EN"
 "http://www.w3.org/TR/2001/REC-SVG-20010904/DTD/svg10.dtd">
<svg version="1.0" xmlns="http://www.w3.org/2000/svg"
 width="495.000000pt" height="495.000000pt" viewBox="0 0 495.000000 495.000000"
 preserveAspectRatio="xMidYMid meet">
<metadata>
Created by potrace 1.14, written by Peter Selinger 2001-2017
</metadata>
<g transform="translate(0.000000,495.000000) scale(0.100000,-0.100000)"
fill="#000000" stroke="none">
<path d="M2820 4847 c-3 -3 -32 -7 -65 -10 -33 -3 -80 -12 -105 -20 -59 -19
-772 -316 -783 -327 -5 -4 1 -29 12 -55 11 -26 18 -51 15 -56 -3 -5 0 -9 6 -9
7 0 9 -7 6 -16 -3 -8 -2 -13 2 -10 4 2 12 -7 19 -20 9 -20 8 -26 -5 -35 -15
-9 -15 -10 1 -5 11 3 20 0 24 -9 3 -10 10 -12 17 -7 6 4 24 14 39 20 23 10 27
10 22 0 -4 -7 0 -5 8 4 11 14 16 15 27 5 10 -9 11 -9 6 0 -8 15 30 37 46 27 7
-4 8 -3 4 4 -4 7 -1 13 8 13 25 2 29 4 63 22 37 20 57 22 47 5 -4 -7 -3 -8 5
-4 6 4 9 11 6 16 -7 11 51 33 66 24 7 -4 10 -3 6 3 -8 13 20 26 35 16 7 -4 8
-1 3 7 -6 10 -3 12 13 8 12 -4 20 -2 16 3 -5 9 9 13 35 10 7 -2 10 2 7 7 -5 8
70 38 87 34 4 -1 7 3 7 9 0 8 6 7 17 -2 11 -9 14 -10 9 -2 -5 9 6 18 31 29 21
9 46 20 55 25 11 5 18 4 21 -4 3 -7 6 -4 6 6 1 9 4 16 9 15 4 0 16 2 27 6 11
4 29 11 40 15 11 4 38 8 60 10 22 1 49 4 60 6 11 2 34 4 50 4 l30 1 0 118 -1
117 -55 3 c-30 2 -57 1 -59 -1z"/>
<path d="M2896 4588 c3 -5 10 -6 15 -3 13 9 11 12 -6 12 -8 0 -12 -4 -9 -9z"/>
<path d="M2799 4585 c-1 -3 -2 -8 -3 -12 -1 -5 -4 -13 -8 -19 -4 -6 -1 -11 5
-11 7 0 13 11 13 24 0 21 -4 31 -7 18z"/>
<path d="M2750 4566 c7 -7 13 -7 20 0 6 6 3 10 -10 10 -13 0 -16 -4 -10 -10z"/>
<path d="M3179 4578 c-1 -2 -3 -910 -4 -2018 -1 -1108 -3 -2018 -4 -2022 -1
-9 -126 -48 -151 -48 -17 0 -19 -11 -22 -111 -2 -61 0 -116 3 -121 7 -12 113
-3 153 12 14 5 26 7 26 4 0 -4 7 -1 15 6 8 6 19 9 25 5 5 -3 10 -2 10 3 0 9
53 36 65 33 3 -1 19 13 34 30 16 17 34 29 39 25 5 -3 9 2 8 12 0 9 5 16 12 14
8 -1 11 2 8 7 -10 16 6 43 22 36 11 -4 12 -2 5 7 -10 14 -9 210 2 228 3 5 1
10 -6 10 -8 0 -8 4 -1 13 6 7 7 18 3 26 -5 8 -5 26 -1 41 4 15 4 33 0 40 -4 7
-4 26 0 41 5 16 5 31 0 34 -6 3 -5 16 0 30 6 15 5 25 -1 27 -7 2 -7 12 0 30 7
18 7 29 0 34 -7 4 -7 10 0 18 6 7 8 15 5 19 -9 9 -10 77 -1 77 4 0 5 5 2 11
-11 16 -12 69 -3 69 5 0 5 8 -1 17 -5 10 -5 26 0 40 5 13 5 23 1 23 -4 0 -7
27 -7 60 0 33 4 60 8 60 4 0 4 8 -2 17 -5 10 -5 26 0 40 5 14 4 25 -2 29 -7 4
-7 10 0 18 6 7 8 15 5 19 -9 9 -10 157 -1 157 5 0 5 5 2 11 -11 16 -12 69 -2
69 4 0 5 5 2 11 -11 16 -12 69 -3 69 5 0 5 8 -1 17 -5 10 -5 26 -1 39 5 12 6
24 4 27 -9 9 -10 117 -1 117 4 0 4 7 -1 17 -6 9 -6 29 -2 45 6 18 5 28 -2 28
-7 0 -7 4 1 13 6 8 8 16 5 20 -9 9 -10 157 -1 157 5 0 5 5 2 10 -10 16 -12
110 -3 110 5 0 5 8 -1 17 -5 10 -5 26 -1 39 5 12 6 24 3 28 -10 9 -10 76 -1
76 5 0 5 7 0 17 -6 9 -6 29 -2 45 5 15 5 28 1 28 -4 0 -8 7 -8 15 0 8 4 15 9
15 5 0 6 5 3 11 -11 16 -12 69 -3 69 5 0 5 8 -1 17 -5 10 -5 26 -1 39 5 12 6
24 4 27 -9 9 -10 117 -1 117 4 0 4 7 -1 17 -6 9 -6 29 -2 45 5 15 6 28 2 28
-4 0 -7 43 -7 95 0 52 4 95 8 95 5 0 5 5 2 10 -10 16 -12 110 -3 110 5 0 5 8
-1 17 -5 10 -5 26 -1 39 5 12 6 24 3 28 -10 9 -10 76 -1 76 5 0 5 7 -1 17 -5
10 -5 26 -1 39 5 12 6 24 3 28 -10 9 -10 76 -1 76 5 0 5 7 -1 17 -5 10 -5 26
-1 39 5 12 6 24 3 28 -10 9 -10 76 -1 76 5 0 5 7 -1 17 -5 10 -5 26 -1 39 5
12 6 25 2 28 -10 11 -11 36 -1 36 6 0 7 5 4 11 -11 16 -12 69 -3 69 5 0 5 8
-1 17 -5 10 -5 26 -1 39 5 12 6 24 4 27 -9 9 -10 117 -1 117 4 0 4 8 -2 17 -5
10 -5 26 -1 39 5 12 6 25 3 28 -3 3 -6 53 -6 111 l1 105 -119 0 c-66 0 -120
-1 -120 -2z"/>
<path d="M2723 4552 c10 -10 14 -22 10 -27 -5 -4 -2 -5 5 -1 11 6 10 12 -4 27
-9 10 -19 19 -22 19 -3 0 2 -8 11 -18z"/>
<path d="M2909 4553 c-13 -16 -12 -17 4 -4 16 13 21 21 13 21 -2 0 -10 -8 -17
-17z"/>
<path d="M2835 4519 c-4 -6 -5 -12 -2 -15 2 -3 7 2 10 11 7 17 1 20 -8 4z"/>
<path d="M2573 4503 c0 -8 5 -9 11 -4 6 5 19 7 28 6 10 -2 20 0 22 4 3 4 -10
7 -28 7 -20 0 -33 -5 -33 -13z"/>
<path d="M2271 4377 c-13 -21 -12 -21 5 -5 10 10 16 20 13 22 -3 3 -11 -5 -18
-17z"/>
<path d="M2186 4352 c-3 -5 1 -9 9 -9 8 0 12 4 9 9 -3 4 -7 8 -9 8 -2 0 -6 -4
-9 -8z"/>
<path d="M2240 4330 c-9 -6 -10 -10 -3 -10 6 0 15 5 18 10 8 12 4 12 -15 0z"/>
<path d="M2280 4330 c-8 -5 -10 -10 -5 -10 6 0 17 5 25 10 8 5 11 10 5 10 -5
0 -17 -5 -25 -10z"/>
<path d="M2027 4249 c7 -7 15 -10 18 -7 3 3 -2 9 -12 12 -14 6 -15 5 -6 -5z"/>
<path d="M2135 4251 c-3 -5 -2 -12 3 -15 5 -3 9 1 9 9 0 17 -3 19 -12 6z"/>
<path d="M1949 4233 c-13 -16 -12 -17 4 -4 9 7 17 15 17 17 0 8 -8 3 -21 -13z"/>
<path d="M2195 3998 c-176 -76 -325 -138 -331 -138 -11 0 -49 103 -60 162 l-6
37 -120 0 -120 1 6 -48 c10 -93 42 -201 77 -260 11 -19 17 -38 13 -43 -3 -5
-1 -8 4 -7 11 3 77 -63 74 -74 -1 -5 1 -7 6 -6 4 1 28 -4 54 -11 26 -7 62 -11
78 -7 23 4 29 3 24 -7 -4 -6 1 -5 12 4 31 25 143 71 156 63 6 -4 8 -3 4 4 -3
6 4 14 16 18 28 9 34 7 30 -11 -1 -7 1 -16 6 -19 5 -3 8 8 6 24 -3 22 0 28 11
24 8 -4 15 -2 15 4 0 9 112 55 126 52 4 -1 10 2 13 7 10 13 98 52 105 46 3 -3
0 -13 -7 -22 -11 -14 -10 -14 6 -2 10 8 16 20 13 27 -2 6 4 14 15 17 10 3 17
1 14 -3 -3 -5 -1 -12 5 -15 6 -4 10 -3 9 2 -3 18 1 34 9 30 9 -6 8 -128 -1
-144 -4 -6 -4 -14 0 -16 5 -3 8 -34 7 -69 0 -49 -4 -62 -15 -60 -11 2 -11 0 1
-10 16 -14 20 -54 7 -75 -5 -7 -5 -13 0 -13 4 0 8 -15 8 -32 -1 -23 -5 -32
-15 -30 -12 2 -12 0 1 -10 21 -17 24 -29 7 -39 -7 -5 -8 -9 -2 -9 6 0 10 -22
9 -52 -1 -41 -4 -52 -15 -50 -13 2 -13 0 0 -10 16 -14 20 -54 7 -75 -5 -7 -5
-13 0 -13 4 0 8 -15 8 -32 -1 -23 -5 -32 -15 -30 -12 2 -12 0 1 -10 21 -17 24
-29 7 -39 -7 -5 -8 -9 -2 -9 6 0 10 -22 9 -52 -1 -41 -4 -52 -15 -50 -13 2
-13 0 0 -10 16 -14 20 -54 7 -75 -5 -7 -5 -13 0 -13 4 0 8 -15 8 -32 -1 -23
-5 -32 -15 -30 -10 1 -8 -4 5 -13 22 -18 23 -24 3 -36 -7 -5 -8 -9 -2 -9 6 0
10 -22 9 -52 -1 -41 -4 -52 -15 -50 -13 2 -13 0 0 -10 16 -14 20 -54 7 -75 -5
-7 -5 -13 0 -13 4 0 8 -15 8 -32 -1 -23 -5 -32 -15 -30 -13 2 -13 0 0 -10 16
-14 20 -94 6 -116 -4 -7 -3 -12 2 -12 12 0 12 -32 -1 -47 -6 -9 -6 -13 0 -13
6 0 10 -10 9 -23 -1 -13 -7 -21 -16 -19 -13 2 -13 0 0 -10 16 -14 21 -122 7
-145 -4 -7 -3 -14 3 -18 10 -6 7 -45 -4 -64 -4 -5 -3 -12 2 -15 10 -6 8 -98
-2 -115 -4 -6 -3 -11 2 -11 12 0 12 -32 -1 -47 -6 -9 -6 -13 0 -13 6 0 10 -10
9 -22 -1 -14 -7 -22 -16 -20 -13 2 -13 0 0 -10 16 -14 21 -122 7 -145 -4 -7
-3 -14 3 -18 10 -6 7 -45 -4 -64 -4 -5 -3 -12 2 -15 10 -6 8 -98 -2 -115 -4
-6 -3 -11 2 -11 12 0 12 -32 -1 -47 -6 -9 -6 -13 0 -13 6 0 10 -10 9 -22 -1
-14 -7 -22 -16 -20 -13 2 -13 0 0 -10 16 -14 21 -122 7 -145 -4 -7 -3 -14 3
-18 10 -6 7 -45 -4 -64 -4 -5 -3 -12 2 -15 10 -6 8 -98 -2 -115 -4 -6 -3 -11
2 -11 12 0 12 -32 -1 -47 -6 -9 -6 -13 0 -13 6 0 10 -10 9 -22 -1 -14 -7 -22
-16 -20 -13 2 -13 0 0 -10 16 -14 21 -122 7 -145 -4 -7 -3 -14 3 -18 9 -6 7
-45 -3 -62 -3 -5 26 -7 65 -5 39 2 68 -1 64 -6 -3 -5 1 -9 9 -9 8 0 12 4 9 8
-2 4 19 9 48 11 l53 3 1 1803 c0 991 -2 1803 -5 1803 -4 1 -46 2 -96 3 l-89 1
-321 -137z"/>
<path d="M1580 3796 c0 -2 8 -10 18 -17 15 -13 16 -12 3 4 -13 16 -21 21 -21
13z"/>
<path d="M2430 3789 c0 -5 5 -7 10 -4 6 3 10 8 10 11 0 2 -4 4 -10 4 -5 0 -10
-5 -10 -11z"/>
<path d="M2376 3757 c3 -10 9 -15 12 -12 3 3 0 11 -7 18 -10 9 -11 8 -5 -6z"/>
<path d="M2306 3712 c-3 -5 1 -9 9 -9 8 0 15 4 15 9 0 4 -4 8 -9 8 -6 0 -12
-4 -15 -8z"/>
<path d="M2170 3649 c0 -5 5 -7 10 -4 6 3 10 8 10 11 0 2 -4 4 -10 4 -5 0 -10
-5 -10 -11z"/>
<path d="M2215 3649 c-3 -4 2 -6 10 -5 21 3 28 13 10 13 -9 0 -18 -4 -20 -8z"/>
<path d="M2055 3640 c-4 -6 -10 -8 -14 -6 -4 3 -8 -1 -8 -9 0 -13 4 -12 19 2
18 16 22 23 14 23 -3 0 -8 -5 -11 -10z"/>
<path d="M2095 3610 c3 -5 8 -10 11 -10 2 0 4 5 4 10 0 6 -5 10 -11 10 -5 0
-7 -4 -4 -10z"/>
<path d="M1647 3589 c7 -7 15 -10 18 -7 3 3 -2 9 -12 12 -14 6 -15 5 -6 -5z"/>
<path d="M1770 3591 c0 -6 4 -13 10 -16 6 -3 7 1 4 9 -7 18 -14 21 -14 7z"/>
<path d="M1917 3581 c-10 -14 -10 -14 4 -4 9 7 18 10 21 7 3 -3 8 -1 12 4 9
16 -24 9 -37 -7z"/>
<path d="M2021 3586 c-9 -11 -9 -16 1 -22 7 -4 10 -4 6 1 -4 4 -3 14 3 22 6 7
9 13 6 13 -2 0 -10 -6 -16 -14z"/>
<path d="M1770 3550 c0 -5 5 -10 11 -10 5 0 7 5 4 10 -3 6 -8 10 -11 10 -2 0
-4 -4 -4 -10z"/>
<path d="M2490 489 c0 -5 5 -7 10 -4 6 3 10 8 10 11 0 2 -4 4 -10 4 -5 0 -10
-5 -10 -11z"/>
<path d="M2630 490 c0 -5 5 -10 11 -10 5 0 7 5 4 10 -3 6 -8 10 -11 10 -2 0
-4 -4 -4 -10z"/>
<path d="M2596 477 c3 -10 9 -15 12 -12 3 3 0 11 -7 18 -10 9 -11 8 -5 -6z"/>
<path d="M2535 450 c3 -5 8 -10 11 -10 2 0 4 5 4 10 0 6 -5 10 -11 10 -5 0 -7
-4 -4 -10z"/>
<path d="M2655 450 c3 -5 8 -10 11 -10 2 0 4 5 4 10 0 6 -5 10 -11 10 -5 0 -7
-4 -4 -10z"/>
<path d="M2593 435 c0 -8 4 -12 9 -9 5 3 6 10 3 15 -9 13 -12 11 -12 -6z"/>
<path d="M2633 425 c0 -8 4 -12 9 -9 5 3 6 10 3 15 -9 13 -12 11 -12 -6z"/>
<path d="M3326 328 c3 -5 10 -6 15 -3 13 9 11 12 -6 12 -8 0 -12 -4 -9 -9z"/>
<path d="M3330 290 c0 -5 5 -10 11 -10 5 0 7 5 4 10 -3 6 -8 10 -11 10 -2 0
-4 -4 -4 -10z"/>
<path d="M3200 276 c0 -2 8 -10 18 -17 15 -13 16 -12 3 4 -13 16 -21 21 -21
13z"/>
<path d="M3064 232 c4 -3 14 -7 22 -8 9 -1 13 0 10 4 -4 3 -14 7 -22 8 -9 1
-13 0 -10 -4z"/>
<path d="M3193 223 c0 -9 4 -10 14 -2 7 6 13 12 13 14 0 1 -6 2 -13 2 -8 0
-14 -6 -14 -14z"/>
<path d="M3076 168 c3 -4 11 -5 19 -1 21 7 19 12 -4 10 -11 0 -18 -5 -15 -9z"/>
</g>
</svg>
